<svg width="41" height="41" viewBox="0 0 41 41" fill="none" xmlns="http://www.w3.org/2000/svg">
<g id="Group 2">
<g id="Vector">
<path d="M20.0438 0C8.9925 0 0 8.99 0 20.0425C0 31.095 8.9925 40.085 20.0438 40.085C31.095 40.085 40.0875 31.095 40.0875 20.0425C40.0875 8.99 31.095 0 20.0438 0ZM20.0438 38.75C9.72875 38.75 1.3375 30.3575 1.3375 20.0425C1.3375 9.7275 9.72875 1.335 20.0438 1.335C30.3587 1.335 38.75 9.7275 38.75 20.0425C38.75 30.3575 30.3587 38.75 20.0438 38.75Z" fill="#9987C5"/>
<path d="M20.0438 0C8.9925 0 0 8.99 0 20.0425C0 31.095 8.9925 40.085 20.0438 40.085C31.095 40.085 40.0875 31.095 40.0875 20.0425C40.0875 8.99 31.095 0 20.0438 0ZM20.0438 38.75C9.72875 38.75 1.3375 30.3575 1.3375 20.0425C1.3375 9.7275 9.72875 1.335 20.0438 1.335C30.3587 1.335 38.75 9.7275 38.75 20.0425C38.75 30.3575 30.3587 38.75 20.0438 38.75Z" fill="url(#paint0_linear)"/>
</g>
<g id="feather:download">
<g id="Group">
<g id="Vector_2">
<path d="M29 23V27C29 27.5304 28.7893 28.0391 28.4142 28.4142C28.0391 28.7893 27.5304 29 27 29H13C12.4696 29 11.9609 28.7893 11.5858 28.4142C11.2107 28.0391 11 27.5304 11 27V23" stroke="#9987C5" stroke-width="1.5" stroke-linecap="round" stroke-linejoin="round"/>
<path d="M29 23V27C29 27.5304 28.7893 28.0391 28.4142 28.4142C28.0391 28.7893 27.5304 29 27 29H13C12.4696 29 11.9609 28.7893 11.5858 28.4142C11.2107 28.0391 11 27.5304 11 27V23" stroke="url(#paint1_linear)" stroke-width="1.5" stroke-linecap="round" stroke-linejoin="round"/>
</g>
<g id="Vector_3">
<path d="M15 18L20 23L25 18" stroke="#9987C5" stroke-width="1.5" stroke-linecap="round" stroke-linejoin="round"/>
<path d="M15 18L20 23L25 18" stroke="url(#paint2_linear)" stroke-width="1.5" stroke-linecap="round" stroke-linejoin="round"/>
</g>
<g id="Vector_4">
<path d="M20 23V11" stroke="#9987C5" stroke-width="1.5" stroke-linecap="round" stroke-linejoin="round"/>
<path d="M20 23V11" stroke="url(#paint3_linear)" stroke-width="1.5" stroke-linecap="round" stroke-linejoin="round"/>
</g>
</g>
</g>
</g>
<defs>
<linearGradient id="paint0_linear" x1="20.0437" y1="0" x2="20.0437" y2="40.085" gradientUnits="userSpaceOnUse">
<stop stop-color="#4484CB"/>
<stop offset="1" stop-color="white" stop-opacity="0"/>
</linearGradient>
<linearGradient id="paint1_linear" x1="20" y1="23" x2="20" y2="29" gradientUnits="userSpaceOnUse">
<stop stop-color="#4484CB"/>
<stop offset="1" stop-color="white" stop-opacity="0"/>
</linearGradient>
<linearGradient id="paint2_linear" x1="20" y1="18" x2="20" y2="23" gradientUnits="userSpaceOnUse">
<stop stop-color="#4484CB"/>
<stop offset="1" stop-color="white" stop-opacity="0"/>
</linearGradient>
<linearGradient id="paint3_linear" x1="20.5" y1="11" x2="20.5" y2="23" gradientUnits="userSpaceOnUse">
<stop stop-color="#4484CB"/>
<stop offset="1" stop-color="white" stop-opacity="0"/>
</linearGradient>
</defs>
</svg>
