<svg width="41" height="41" viewBox="0 0 41 41" fill="none" xmlns="http://www.w3.org/2000/svg">
<g id="Group 9">
<g id="Vector">
<path d="M20.0425 0C8.99 0 0 8.99 0 20.0425C0 31.095 8.99 40.085 20.0425 40.085C31.095 40.085 40.085 31.095 40.085 20.0425C40.085 8.99 31.095 0 20.0425 0ZM20.0425 38.75C9.7275 38.75 1.335 30.3575 1.335 20.0425C1.335 9.7275 9.7275 1.335 20.0425 1.335C30.3575 1.335 38.75 9.7275 38.75 20.0425C38.75 30.3575 30.3575 38.75 20.0425 38.75Z" fill="#9987C5"/>
<path d="M20.0425 0C8.99 0 0 8.99 0 20.0425C0 31.095 8.99 40.085 20.0425 40.085C31.095 40.085 40.085 31.095 40.085 20.0425C40.085 8.99 31.095 0 20.0425 0ZM20.0425 38.75C9.7275 38.75 1.335 30.3575 1.335 20.0425C1.335 9.7275 9.7275 1.335 20.0425 1.335C30.3575 1.335 38.75 9.7275 38.75 20.0425C38.75 30.3575 30.3575 38.75 20.0425 38.75Z" fill="url(#paint0_linear)"/>
</g>
<g id="Vector_2">
<path d="M12.5 11H27.6667C28.5949 11 29.4852 11.3687 30.1415 12.0251C30.7979 12.6815 31.1667 13.5717 31.1667 14.5V25C31.1667 25.9283 30.7979 26.8185 30.1415 27.4749C29.4852 28.1313 28.5949 28.5 27.6667 28.5H12.5C11.5717 28.5 10.6815 28.1313 10.0251 27.4749C9.36875 26.8185 9 25.9283 9 25V14.5C9 13.5717 9.36875 12.6815 10.0251 12.0251C10.6815 11.3687 11.5717 11 12.5 11V11ZM12.5 12.1667C11.9307 12.1667 11.408 12.3708 11.0032 12.7103L20.0833 18.6067L29.1635 12.7103C28.7442 12.3585 28.2141 12.1659 27.6667 12.1667H12.5ZM20.0833 19.9973L10.323 13.66C10.2195 13.928 10.1665 14.2128 10.1667 14.5V25C10.1667 25.6188 10.4125 26.2123 10.8501 26.6499C11.2877 27.0875 11.8812 27.3333 12.5 27.3333H27.6667C28.2855 27.3333 28.879 27.0875 29.3166 26.6499C29.7542 26.2123 30 25.6188 30 25V14.5C30 14.2037 29.9452 13.9202 29.8437 13.66L20.0833 19.9962V19.9973Z" fill="#9987C5"/>
<path d="M12.5 11H27.6667C28.5949 11 29.4852 11.3687 30.1415 12.0251C30.7979 12.6815 31.1667 13.5717 31.1667 14.5V25C31.1667 25.9283 30.7979 26.8185 30.1415 27.4749C29.4852 28.1313 28.5949 28.5 27.6667 28.5H12.5C11.5717 28.5 10.6815 28.1313 10.0251 27.4749C9.36875 26.8185 9 25.9283 9 25V14.5C9 13.5717 9.36875 12.6815 10.0251 12.0251C10.6815 11.3687 11.5717 11 12.5 11V11ZM12.5 12.1667C11.9307 12.1667 11.408 12.3708 11.0032 12.7103L20.0833 18.6067L29.1635 12.7103C28.7442 12.3585 28.2141 12.1659 27.6667 12.1667H12.5ZM20.0833 19.9973L10.323 13.66C10.2195 13.928 10.1665 14.2128 10.1667 14.5V25C10.1667 25.6188 10.4125 26.2123 10.8501 26.6499C11.2877 27.0875 11.8812 27.3333 12.5 27.3333H27.6667C28.2855 27.3333 28.879 27.0875 29.3166 26.6499C29.7542 26.2123 30 25.6188 30 25V14.5C30 14.2037 29.9452 13.9202 29.8437 13.66L20.0833 19.9962V19.9973Z" fill="url(#paint1_linear)"/>
</g>
</g>
<defs>
<linearGradient id="paint0_linear" x1="20.0425" y1="0" x2="20.0425" y2="40.085" gradientUnits="userSpaceOnUse">
<stop stop-color="#4484CB"/>
<stop offset="1" stop-color="white" stop-opacity="0"/>
</linearGradient>
<linearGradient id="paint1_linear" x1="20.0833" y1="11" x2="20.0833" y2="28.5" gradientUnits="userSpaceOnUse">
<stop stop-color="#4484CB"/>
<stop offset="1" stop-color="white" stop-opacity="0"/>
</linearGradient>
</defs>
</svg>
