<svg width="40" height="40" viewBox="0 0 40 40" fill="none" xmlns="http://www.w3.org/2000/svg">
<g id="Group">
<g id="Vector">
<path d="M15.2909 38.0258C15.2909 37.3896 15.2672 35.2944 15.2672 32.6975C15.2672 30.8809 15.8589 29.6963 16.5285 29.0924C12.3126 28.5976 7.87665 26.9286 7.87665 19.4611C7.87665 17.335 8.61869 15.5959 9.83126 14.235C9.63762 13.7409 8.98293 11.7603 10.0195 9.07827C10.0195 9.07827 11.6139 8.55395 15.2435 11.074C16.7587 10.643 18.3836 10.4248 20.001 10.4213C21.6151 10.4248 23.2406 10.643 24.7585 11.074C28.3854 8.55395 29.9792 9.07827 29.9792 9.07827C31.0164 11.7603 30.3651 13.7416 30.1674 14.235C31.3833 15.5959 32.1186 17.3329 32.1186 19.4611C32.1186 26.945 27.6772 28.5935 23.441 29.0746C24.1269 29.6799 24.7335 30.8665 24.7335 32.6865C24.7335 35.2889 24.7098 37.3875 24.7098 38.0258C24.7098 38.5487 25.0517 39.152 26.0165 38.9653C33.562 36.3863 39 29.0856 39 20.4823C39 9.72269 30.4917 1 19.9976 1C9.50763 1 1 9.72063 1 20.4823C1 29.089 6.44337 36.3917 14.0004 38.9667C14.9449 39.1465 15.2909 38.5453 15.2909 38.0265V38.0258Z" stroke="#9987C5" stroke-width="1.5" stroke-miterlimit="10" stroke-linecap="round" stroke-linejoin="round"/>
<path d="M15.2909 38.0258C15.2909 37.3896 15.2672 35.2944 15.2672 32.6975C15.2672 30.8809 15.8589 29.6963 16.5285 29.0924C12.3126 28.5976 7.87665 26.9286 7.87665 19.4611C7.87665 17.335 8.61869 15.5959 9.83126 14.235C9.63762 13.7409 8.98293 11.7603 10.0195 9.07827C10.0195 9.07827 11.6139 8.55395 15.2435 11.074C16.7587 10.643 18.3836 10.4248 20.001 10.4213C21.6151 10.4248 23.2406 10.643 24.7585 11.074C28.3854 8.55395 29.9792 9.07827 29.9792 9.07827C31.0164 11.7603 30.3651 13.7416 30.1674 14.235C31.3833 15.5959 32.1186 17.3329 32.1186 19.4611C32.1186 26.945 27.6772 28.5935 23.441 29.0746C24.1269 29.6799 24.7335 30.8665 24.7335 32.6865C24.7335 35.2889 24.7098 37.3875 24.7098 38.0258C24.7098 38.5487 25.0517 39.152 26.0165 38.9653C33.562 36.3863 39 29.0856 39 20.4823C39 9.72269 30.4917 1 19.9976 1C9.50763 1 1 9.72063 1 20.4823C1 29.089 6.44337 36.3917 14.0004 38.9667C14.9449 39.1465 15.2909 38.5453 15.2909 38.0265V38.0258Z" stroke="url(#paint0_linear)" stroke-width="1.5" stroke-miterlimit="10" stroke-linecap="round" stroke-linejoin="round"/>
</g>
<g id="Vector_2">
<path d="M6.65594 28.7465C8.39457 29.2818 9.07973 29.8686 9.89827 31.259C10.7141 32.6494 11.6721 34.2011 15.2692 33.3172" stroke="#9987C5" stroke-width="1.5" stroke-miterlimit="10" stroke-linecap="round" stroke-linejoin="round"/>
<path d="M6.65594 28.7465C8.39457 29.2818 9.07973 29.8686 9.89827 31.259C10.7141 32.6494 11.6721 34.2011 15.2692 33.3172" stroke="url(#paint1_linear)" stroke-width="1.5" stroke-miterlimit="10" stroke-linecap="round" stroke-linejoin="round"/>
</g>
</g>
<defs>
<linearGradient id="paint0_linear" x1="20" y1="1" x2="20" y2="39" gradientUnits="userSpaceOnUse">
<stop stop-color="#4484CB"/>
<stop offset="1" stop-color="white" stop-opacity="0"/>
</linearGradient>
<linearGradient id="paint1_linear" x1="10.9626" y1="28.7465" x2="10.9626" y2="33.5761" gradientUnits="userSpaceOnUse">
<stop stop-color="#4484CB"/>
<stop offset="1" stop-color="white" stop-opacity="0"/>
</linearGradient>
</defs>
</svg>
