<svg width="40" height="40" viewBox="0 0 40 40" fill="none" xmlns="http://www.w3.org/2000/svg">
<g id="et:linkedin">
<g clip-path="url(#clip0)">
<g id="Group">
<g id="Vector">
<path d="M24.3938 14.94C23.5463 14.94 22.9188 15.1538 22.4275 15.4238C22.3488 15.1438 22.09 14.9388 21.785 15H18.055C17.6863 14.9388 17.3875 15.2375 17.5013 15.625V29.375C17.3875 29.725 17.6863 30.025 18.055 30H21.785C22.1538 30.025 22.4525 29.725 22.4525 29.3563L22.4513 21.0463C22.45 21.0425 22.4363 20.645 22.6875 20.3713C22.8888 20.1538 23.235 20.0425 23.7138 20.0425C24.5113 20.0425 24.8663 20.3688 24.9988 21.0988V29.3563C24.8675 29.725 25.1663 30.025 25.535 30H29.4663C29.835 30.025 30.1338 29.725 30.0013 29.3563V20.8213C30.1325 16.4813 27.0413 14.94 24.3938 14.94ZM28.7975 28.75H26.2025V21.0988C26.2025 19.6225 25.2488 18.7075 23.715 18.7075C22.8475 18.7075 22.1725 18.9625 21.7075 19.465C21.0613 20.165 21.1113 21.0525 21.25 21.25V28.75H18.7225V16.275H21.1175V16.695C21.1165 16.8201 21.1509 16.943 21.2166 17.0494C21.2823 17.1559 21.3767 17.2417 21.489 17.2969C21.6013 17.3521 21.7268 17.3746 21.8513 17.3616C21.9757 17.3487 22.094 17.3009 22.1925 17.2238L22.3675 17.0888C22.8738 16.69 23.3975 16.2763 24.395 16.2763C25.4275 16.2763 28.7988 16.605 28.7988 20.8225V28.75H28.7975Z" fill="#9987C5"/>
<path d="M24.3938 14.94C23.5463 14.94 22.9188 15.1538 22.4275 15.4238C22.3488 15.1438 22.09 14.9388 21.785 15H18.055C17.6863 14.9388 17.3875 15.2375 17.5013 15.625V29.375C17.3875 29.725 17.6863 30.025 18.055 30H21.785C22.1538 30.025 22.4525 29.725 22.4525 29.3563L22.4513 21.0463C22.45 21.0425 22.4363 20.645 22.6875 20.3713C22.8888 20.1538 23.235 20.0425 23.7138 20.0425C24.5113 20.0425 24.8663 20.3688 24.9988 21.0988V29.3563C24.8675 29.725 25.1663 30.025 25.535 30H29.4663C29.835 30.025 30.1338 29.725 30.0013 29.3563V20.8213C30.1325 16.4813 27.0413 14.94 24.3938 14.94ZM28.7975 28.75H26.2025V21.0988C26.2025 19.6225 25.2488 18.7075 23.715 18.7075C22.8475 18.7075 22.1725 18.9625 21.7075 19.465C21.0613 20.165 21.1113 21.0525 21.25 21.25V28.75H18.7225V16.275H21.1175V16.695C21.1165 16.8201 21.1509 16.943 21.2166 17.0494C21.2823 17.1559 21.3767 17.2417 21.489 17.2969C21.6013 17.3521 21.7268 17.3746 21.8513 17.3616C21.9757 17.3487 22.094 17.3009 22.1925 17.2238L22.3675 17.0888C22.8738 16.69 23.3975 16.2763 24.395 16.2763C25.4275 16.2763 28.7988 16.605 28.7988 20.8225V28.75H28.7975Z" fill="url(#paint0_linear)"/>
</g>
<g id="Vector_2">
<path d="M13.75 8.7075C12.3475 8.7075 11.2075 9.8475 11.2075 11.25C11.2075 12.6525 12.3475 13.7925 13.75 13.7925C15.1525 13.7925 16.2925 12.6525 16.2925 11.25C16.2925 9.8475 15.1525 8.7075 13.75 8.7075ZM13.75 12.4575C13.085 12.4575 12.5425 11.915 12.5425 11.25C12.5425 10.585 13.085 10.0425 13.75 10.0425C14.415 10.0425 14.9575 10.585 14.9575 11.25C14.9575 11.915 14.415 12.4575 13.75 12.4575Z" fill="#9987C5"/>
<path d="M13.75 8.7075C12.3475 8.7075 11.2075 9.8475 11.2075 11.25C11.2075 12.6525 12.3475 13.7925 13.75 13.7925C15.1525 13.7925 16.2925 12.6525 16.2925 11.25C16.2925 9.8475 15.1525 8.7075 13.75 8.7075ZM13.75 12.4575C13.085 12.4575 12.5425 11.915 12.5425 11.25C12.5425 10.585 13.085 10.0425 13.75 10.0425C14.415 10.0425 14.9575 10.585 14.9575 11.25C14.9575 11.915 14.415 12.4575 13.75 12.4575Z" fill="url(#paint1_linear)"/>
</g>
<g id="Vector_3">
<path d="M15.535 14.9388H11.825C11.4563 14.9388 11.1575 15.2375 11.25 15.625V29.375C11.1575 29.725 11.4563 30.025 11.825 30H15.535C15.9038 30.025 16.2025 29.725 16.2025 29.3563V15.6063C16.2025 15.4292 16.1322 15.2594 16.007 15.1343C15.8818 15.0091 15.712 14.9388 15.535 14.9388ZM15 28.75H12.4925V16.275H15V28.75Z" fill="#9987C5"/>
<path d="M15.535 14.9388H11.825C11.4563 14.9388 11.1575 15.2375 11.25 15.625V29.375C11.1575 29.725 11.4563 30.025 11.825 30H15.535C15.9038 30.025 16.2025 29.725 16.2025 29.3563V15.6063C16.2025 15.4292 16.1322 15.2594 16.007 15.1343C15.8818 15.0091 15.712 14.9388 15.535 14.9388ZM15 28.75H12.4925V16.275H15V28.75Z" fill="url(#paint2_linear)"/>
</g>
<g id="Vector_4">
<path d="M20 -0.0424957C8.94752 -0.0424957 -0.0424805 8.9475 -0.0424805 20C-0.0424805 31.0525 8.94752 40.0425 20 40.0425C31.0525 40.0425 40.0425 31.0525 40.0425 20C40.0425 8.9475 31.0525 -0.0424957 20 -0.0424957ZM20 38.7075C9.68502 38.7075 1.29252 30.315 1.29252 20C1.29252 9.68501 9.68502 1.2925 20 1.2925C30.315 1.2925 38.7075 9.68501 38.7075 20C38.7075 30.315 30.315 38.7075 20 38.7075Z" fill="#9987C5"/>
<path d="M20 -0.0424957C8.94752 -0.0424957 -0.0424805 8.9475 -0.0424805 20C-0.0424805 31.0525 8.94752 40.0425 20 40.0425C31.0525 40.0425 40.0425 31.0525 40.0425 20C40.0425 8.9475 31.0525 -0.0424957 20 -0.0424957ZM20 38.7075C9.68502 38.7075 1.29252 30.315 1.29252 20C1.29252 9.68501 9.68502 1.2925 20 1.2925C30.315 1.2925 38.7075 9.68501 38.7075 20C38.7075 30.315 30.315 38.7075 20 38.7075Z" fill="url(#paint3_linear)"/>
</g>
</g>
</g>
</g>
<defs>
<linearGradient id="paint0_linear" x1="23.755" y1="14.94" x2="23.755" y2="30.0015" gradientUnits="userSpaceOnUse">
<stop stop-color="#4484CB"/>
<stop offset="1" stop-color="white" stop-opacity="0"/>
</linearGradient>
<linearGradient id="paint1_linear" x1="13.75" y1="8.7075" x2="13.75" y2="13.7925" gradientUnits="userSpaceOnUse">
<stop stop-color="#4484CB"/>
<stop offset="1" stop-color="white" stop-opacity="0"/>
</linearGradient>
<linearGradient id="paint2_linear" x1="13.7178" y1="14.9388" x2="13.7178" y2="30.0015" gradientUnits="userSpaceOnUse">
<stop stop-color="#4484CB"/>
<stop offset="1" stop-color="white" stop-opacity="0"/>
</linearGradient>
<linearGradient id="paint3_linear" x1="20" y1="-0.0424957" x2="20" y2="40.0425" gradientUnits="userSpaceOnUse">
<stop stop-color="#4484CB"/>
<stop offset="1" stop-color="white" stop-opacity="0"/>
</linearGradient>
<clipPath id="clip0">
<rect width="40" height="40" fill="white"/>
</clipPath>
</defs>
</svg>
