<svg width="40" height="40" viewBox="0 0 40 40" fill="none" xmlns="http://www.w3.org/2000/svg">
<g id="twitter">
<g id="Vector">
<path d="M20 -0.0424957C8.94874 -0.0424957 -0.0437622 8.9475 -0.0437622 20C-0.0437622 31.0525 8.94874 40.0425 20 40.0425C31.0512 40.0425 40.0437 31.0525 40.0437 20C40.0437 8.9475 31.0512 -0.0424957 20 -0.0424957ZM20 38.7075C9.68499 38.7075 1.29374 30.315 1.29374 20C1.29374 9.68501 9.68499 1.2925 20 1.2925C30.315 1.2925 38.7062 9.68501 38.7062 20C38.7062 30.315 30.315 38.7075 20 38.7075Z" fill="#9987C5"/>
<path d="M20 -0.0424957C8.94874 -0.0424957 -0.0437622 8.9475 -0.0437622 20C-0.0437622 31.0525 8.94874 40.0425 20 40.0425C31.0512 40.0425 40.0437 31.0525 40.0437 20C40.0437 8.9475 31.0512 -0.0424957 20 -0.0424957ZM20 38.7075C9.68499 38.7075 1.29374 30.315 1.29374 20C1.29374 9.68501 9.68499 1.2925 20 1.2925C30.315 1.2925 38.7062 9.68501 38.7062 20C38.7062 30.315 30.315 38.7075 20 38.7075Z" fill="url(#paint0_linear)"/>
</g>
<g id="Vector_2">
<path d="M30.9925 13.8075C31.1311 13.5509 31.2454 13.2818 31.3337 13.0038C31.3746 12.8748 31.3755 12.7365 31.3361 12.607C31.2968 12.4776 31.2191 12.3632 31.1133 12.2788C31.0076 12.1944 30.8787 12.1441 30.7438 12.1345C30.6088 12.1249 30.4741 12.1565 30.3575 12.225C29.717 12.6055 29.0236 12.889 28.3 13.0663C27.4216 12.2735 26.2808 11.834 25.0975 11.8325C24.4546 11.833 23.8185 11.9633 23.2272 12.2156C22.6359 12.4679 22.1017 12.8369 21.6565 13.3007C21.2113 13.7645 20.8643 14.3133 20.6364 14.9144C20.4085 15.5155 20.3042 16.1564 20.33 16.7988C17.5188 16.4449 14.9517 15.0223 13.1612 12.8263C13.0926 12.7431 13.005 12.6776 12.9057 12.6356C12.8064 12.5935 12.6984 12.576 12.5909 12.5846C12.4834 12.5932 12.3796 12.6276 12.2883 12.6849C12.1969 12.7422 12.1208 12.8207 12.0662 12.9138C11.6563 13.6174 11.4334 14.4144 11.419 15.2286C11.4046 16.0429 11.599 16.8472 11.9837 17.565C11.8894 17.5809 11.7987 17.614 11.7162 17.6625C11.6152 17.727 11.532 17.8158 11.4743 17.9209C11.4166 18.026 11.3863 18.1439 11.3862 18.2638C11.3862 19.6825 12.0175 20.985 13.035 21.87L12.9912 21.9138C12.9144 22.0007 12.8616 22.1061 12.8379 22.2196C12.8142 22.3331 12.8206 22.4509 12.8562 22.5613C13.0684 23.2232 13.4227 23.8307 13.8942 24.3413C14.3658 24.852 14.9433 25.2534 15.5862 25.5175C14.2657 26.1617 12.7879 26.4129 11.3287 26.2413C11.1787 26.226 11.0279 26.2609 10.8999 26.3405C10.7719 26.4201 10.6739 26.54 10.6212 26.6813C10.5707 26.8236 10.5698 26.9788 10.6185 27.1218C10.6673 27.2647 10.763 27.387 10.89 27.4688C12.8738 28.7419 15.1816 29.4184 17.5387 29.4175C25.2637 29.4175 29.8812 23.1425 29.8812 17.0763L29.88 16.8713C30.6287 16.2868 31.279 15.5862 31.8062 14.7963C31.8861 14.6768 31.9254 14.5349 31.9182 14.3914C31.9111 14.2479 31.858 14.1105 31.7667 13.9996C31.6754 13.8887 31.5508 13.8101 31.4113 13.7755C31.2719 13.7409 31.125 13.7521 30.9925 13.8075ZM28.8112 16.0013C28.7205 16.0665 28.6476 16.1534 28.5991 16.2541C28.5507 16.3547 28.5282 16.4659 28.5337 16.5775C28.5412 16.7425 28.545 16.91 28.545 17.075C28.545 22.485 24.4287 28.0813 17.54 28.0813C16.3114 28.0818 15.0914 27.8756 13.9312 27.4713C15.3207 27.205 16.626 26.6091 17.7375 25.7338C17.8457 25.6484 17.9249 25.5318 17.9643 25.3998C18.0037 25.2677 18.0013 25.1268 17.9575 24.9961C17.9138 24.8655 17.8307 24.7516 17.7197 24.6699C17.6087 24.5883 17.4752 24.5429 17.3375 24.54C16.7985 24.5297 16.2695 24.3929 15.7931 24.1406C15.3168 23.8883 14.9063 23.5276 14.595 23.0875C14.9112 23.0663 15.2212 23.0138 15.5225 22.9325C15.6683 22.8935 15.7966 22.8062 15.8864 22.6849C15.9762 22.5636 16.0222 22.4154 16.017 22.2646C16.0118 22.1138 15.9556 21.9692 15.8576 21.8544C15.7596 21.7396 15.6256 21.6614 15.4775 21.6325C14.8688 21.5087 14.3052 21.2217 13.847 20.8023C13.3888 20.3828 13.0532 19.8467 12.8762 19.2513C13.2087 19.335 13.55 19.3838 13.8912 19.395C14.185 19.3938 14.4575 19.2138 14.5487 18.9313C14.64 18.6488 14.5325 18.3375 14.2837 18.1725C13.6956 17.7806 13.2427 17.2168 12.987 16.5579C12.7313 15.899 12.6852 15.1773 12.855 14.4913C15.0263 16.7191 17.9582 18.0458 21.065 18.2063C21.285 18.2075 21.4775 18.1288 21.6112 17.9675C21.745 17.8063 21.7962 17.5925 21.7487 17.3875C21.5778 16.6513 21.6542 15.8792 21.9663 15.1908C22.2784 14.5024 22.8086 13.936 23.475 13.5793C24.1414 13.2226 24.9068 13.0955 25.6527 13.2177C26.3986 13.3398 27.0834 13.7044 27.6012 14.255C27.6788 14.3378 27.7763 14.3995 27.8843 14.4343C27.9923 14.469 28.1074 14.4757 28.2187 14.4538C28.425 14.4125 28.6287 14.365 28.83 14.31C28.7393 14.3779 28.645 14.4409 28.5475 14.4988C28.4179 14.5782 28.3192 14.6993 28.2676 14.8424C28.2161 14.9854 28.2149 15.1417 28.2641 15.2855C28.3133 15.4293 28.41 15.5521 28.5383 15.6336C28.6666 15.7151 28.8189 15.7504 28.97 15.7338L29.1975 15.705C29.0722 15.8082 28.9434 15.907 28.8112 16.0013Z" fill="#9987C5"/>
<path d="M30.9925 13.8075C31.1311 13.5509 31.2454 13.2818 31.3337 13.0038C31.3746 12.8748 31.3755 12.7365 31.3361 12.607C31.2968 12.4776 31.2191 12.3632 31.1133 12.2788C31.0076 12.1944 30.8787 12.1441 30.7438 12.1345C30.6088 12.1249 30.4741 12.1565 30.3575 12.225C29.717 12.6055 29.0236 12.889 28.3 13.0663C27.4216 12.2735 26.2808 11.834 25.0975 11.8325C24.4546 11.833 23.8185 11.9633 23.2272 12.2156C22.6359 12.4679 22.1017 12.8369 21.6565 13.3007C21.2113 13.7645 20.8643 14.3133 20.6364 14.9144C20.4085 15.5155 20.3042 16.1564 20.33 16.7988C17.5188 16.4449 14.9517 15.0223 13.1612 12.8263C13.0926 12.7431 13.005 12.6776 12.9057 12.6356C12.8064 12.5935 12.6984 12.576 12.5909 12.5846C12.4834 12.5932 12.3796 12.6276 12.2883 12.6849C12.1969 12.7422 12.1208 12.8207 12.0662 12.9138C11.6563 13.6174 11.4334 14.4144 11.419 15.2286C11.4046 16.0429 11.599 16.8472 11.9837 17.565C11.8894 17.5809 11.7987 17.614 11.7162 17.6625C11.6152 17.727 11.532 17.8158 11.4743 17.9209C11.4166 18.026 11.3863 18.1439 11.3862 18.2638C11.3862 19.6825 12.0175 20.985 13.035 21.87L12.9912 21.9138C12.9144 22.0007 12.8616 22.1061 12.8379 22.2196C12.8142 22.3331 12.8206 22.4509 12.8562 22.5613C13.0684 23.2232 13.4227 23.8307 13.8942 24.3413C14.3658 24.852 14.9433 25.2534 15.5862 25.5175C14.2657 26.1617 12.7879 26.4129 11.3287 26.2413C11.1787 26.226 11.0279 26.2609 10.8999 26.3405C10.7719 26.4201 10.6739 26.54 10.6212 26.6813C10.5707 26.8236 10.5698 26.9788 10.6185 27.1218C10.6673 27.2647 10.763 27.387 10.89 27.4688C12.8738 28.7419 15.1816 29.4184 17.5387 29.4175C25.2637 29.4175 29.8812 23.1425 29.8812 17.0763L29.88 16.8713C30.6287 16.2868 31.279 15.5862 31.8062 14.7963C31.8861 14.6768 31.9254 14.5349 31.9182 14.3914C31.9111 14.2479 31.858 14.1105 31.7667 13.9996C31.6754 13.8887 31.5508 13.8101 31.4113 13.7755C31.2719 13.7409 31.125 13.7521 30.9925 13.8075ZM28.8112 16.0013C28.7205 16.0665 28.6476 16.1534 28.5991 16.2541C28.5507 16.3547 28.5282 16.4659 28.5337 16.5775C28.5412 16.7425 28.545 16.91 28.545 17.075C28.545 22.485 24.4287 28.0813 17.54 28.0813C16.3114 28.0818 15.0914 27.8756 13.9312 27.4713C15.3207 27.205 16.626 26.6091 17.7375 25.7338C17.8457 25.6484 17.9249 25.5318 17.9643 25.3998C18.0037 25.2677 18.0013 25.1268 17.9575 24.9961C17.9138 24.8655 17.8307 24.7516 17.7197 24.6699C17.6087 24.5883 17.4752 24.5429 17.3375 24.54C16.7985 24.5297 16.2695 24.3929 15.7931 24.1406C15.3168 23.8883 14.9063 23.5276 14.595 23.0875C14.9112 23.0663 15.2212 23.0138 15.5225 22.9325C15.6683 22.8935 15.7966 22.8062 15.8864 22.6849C15.9762 22.5636 16.0222 22.4154 16.017 22.2646C16.0118 22.1138 15.9556 21.9692 15.8576 21.8544C15.7596 21.7396 15.6256 21.6614 15.4775 21.6325C14.8688 21.5087 14.3052 21.2217 13.847 20.8023C13.3888 20.3828 13.0532 19.8467 12.8762 19.2513C13.2087 19.335 13.55 19.3838 13.8912 19.395C14.185 19.3938 14.4575 19.2138 14.5487 18.9313C14.64 18.6488 14.5325 18.3375 14.2837 18.1725C13.6956 17.7806 13.2427 17.2168 12.987 16.5579C12.7313 15.899 12.6852 15.1773 12.855 14.4913C15.0263 16.7191 17.9582 18.0458 21.065 18.2063C21.285 18.2075 21.4775 18.1288 21.6112 17.9675C21.745 17.8063 21.7962 17.5925 21.7487 17.3875C21.5778 16.6513 21.6542 15.8792 21.9663 15.1908C22.2784 14.5024 22.8086 13.936 23.475 13.5793C24.1414 13.2226 24.9068 13.0955 25.6527 13.2177C26.3986 13.3398 27.0834 13.7044 27.6012 14.255C27.6788 14.3378 27.7763 14.3995 27.8843 14.4343C27.9923 14.469 28.1074 14.4757 28.2187 14.4538C28.425 14.4125 28.6287 14.365 28.83 14.31C28.7393 14.3779 28.645 14.4409 28.5475 14.4988C28.4179 14.5782 28.3192 14.6993 28.2676 14.8424C28.2161 14.9854 28.2149 15.1417 28.2641 15.2855C28.3133 15.4293 28.41 15.5521 28.5383 15.6336C28.6666 15.7151 28.8189 15.7504 28.97 15.7338L29.1975 15.705C29.0722 15.8082 28.9434 15.907 28.8112 16.0013Z" fill="url(#paint1_linear)"/>
</g>
</g>
<defs>
<linearGradient id="paint0_linear" x1="20" y1="-0.0424957" x2="20" y2="40.0425" gradientUnits="userSpaceOnUse">
<stop stop-color="#4484CB"/>
<stop offset="1" stop-color="white" stop-opacity="0"/>
</linearGradient>
<linearGradient id="paint1_linear" x1="21.2508" y1="11.8325" x2="21.2508" y2="29.4175" gradientUnits="userSpaceOnUse">
<stop stop-color="#4484CB"/>
<stop offset="1" stop-color="white" stop-opacity="0"/>
</linearGradient>
</defs>
</svg>
